# xmcd
#
# Track frame offsets: 
#        150
#        13075
#        26437
#        38420
#        51372
#        64527
#        76100
#        88722
#        102205
#        114435
#        126252
#        139082
#        152747
#        161295
#        175975
#        189237
#        202977
#        214810
#        228260
#        242567
#
# Disc length: 3387 seconds
#
# Revision: 1
# Processed by: cddbd v1.5.2PL0 Copyright (c) Steve Scherf et al.
# Submitted via: ExactAudioCopy v0.99pb5
#
DISCID=f60d3914
DTITLE=Lightnin' Hopkins - Hello Central: The Best Of Lightnin' Hopkin
DTITLE=s
DYEAR=2004
DGENRE=Blues
TTITLE0=Home In The Woods (No Good Woman)
TTITLE1=Hello Central (Give Me Central)
TTITLE2=Gotta Move
TTITLE3=Broken Hearted Blues
TTITLE4=Bald Headed Woman
TTITLE5=Buck Dance Boogie (Papa Bones Boogie)
TTITLE6=Freight Train
TTITLE7=Everybody's Down On Me
TTITLE8=Coffee Blues
TTITLE9=I'm Begging You
TTITLE10=Why Did You Get Mad At Me
TTITLE11=Long Way From Texas
TTITLE12=Worried Blues
TTITLE13=Happy New Year
TTITLE14=Down To The River
TTITLE15=You Do Too (I'll Never Forget The Day)
TTITLE16=Tap Dance Boogie
TTITLE17=New Short Haired Woman
TTITLE18=Tell Me Boogie (Mad As I Can Be)
TTITLE19=My Heart To Weep
EXTD=
EXTT0=
EXTT1=
EXTT2=
EXTT3=
EXTT4=
EXTT5=
EXTT6=
EXTT7=
EXTT8=
EXTT9=
EXTT10=
EXTT11=
EXTT12=
EXTT13=
EXTT14=
EXTT15=
EXTT16=
EXTT17=
EXTT18=
EXTT19=
PLAYORDER=
